<svg width="1024" height="1024" viewBox="0 0 1024 1024" fill="none" xmlns="http://www.w3.org/2000/svg">
<g clip-path="url(#clip0_102_235)">
<rect width="1024" height="1024" fill="#84CDEE"/>
<path d="M707 678.925C707 687.816 710.117 695.73 716.351 702.669C722.206 709.066 729.172 712.86 737.249 714.053C741.26 729.503 749.175 743.733 760.993 756.743C778.936 776.367 800.593 787.398 825.963 789.838C851.224 792.277 872.827 785.42 890.77 769.265C892.125 767.964 893.453 766.69 894.754 765.444C897.031 765.769 899.335 766.067 901.666 766.338C924.326 768.506 944.221 763.872 961.351 752.433C963.14 754.764 965.064 757.095 967.124 759.426C981.435 775.039 998.674 783.848 1018.84 785.853C1036.08 787.48 1051.15 783.739 1064.05 774.632C1072.07 781.571 1081.34 785.555 1091.86 786.585C1104.71 787.778 1115.63 784.308 1124.63 776.177C1133.68 767.991 1138.21 757.502 1138.21 744.708C1138.21 731.915 1133.68 720.558 1124.63 710.638C1115.63 700.772 1104.71 695.188 1091.86 693.887C1090.4 693.779 1088.96 693.697 1087.55 693.643C1083.97 683.723 1078.31 674.507 1070.56 665.996C1056.3 650.33 1039.06 641.548 1018.84 639.65C1010.38 638.837 1002.47 639.298 995.096 641.033C990.326 627.589 982.601 615.039 971.922 603.384C952.569 582.134 929.15 570.181 901.666 567.525C874.236 564.869 850.818 572.295 831.411 589.805C825.881 594.792 821.165 600.159 817.262 605.905C795.578 605.688 776.822 612.708 760.993 626.965C753.349 633.85 747.332 641.629 742.941 650.303C741.694 650.086 740.447 649.923 739.2 649.815C730.256 648.947 722.639 651.36 716.351 657.052C710.117 662.69 707 669.981 707 678.925Z" fill="white"/>
<path d="M211.331 968.801C202.444 977.234 198 987.711 198 1000.23C198 1012.75 202.444 1023.68 211.331 1033.03C219.311 1041.46 228.815 1046.32 239.843 1047.62C243.152 1052.29 246.85 1056.83 250.937 1061.24C270.593 1081.74 294.24 1092.68 321.876 1094.04C344.322 1095.08 364.108 1089.63 381.235 1077.69C394.08 1086.19 408.546 1090.79 424.635 1091.51C442.605 1092.42 458.564 1088.33 472.511 1079.25C484.253 1085.41 497.163 1088.85 511.241 1089.56C534.206 1090.67 554.057 1084.15 570.794 1070C580.785 1079.6 592.689 1084.73 606.507 1085.38C621.233 1086.16 633.851 1081.55 644.361 1071.56C654.805 1061.57 660.028 1049.18 660.028 1034.39C660.028 1019.66 654.805 1006.78 644.361 995.755C633.851 984.792 621.233 978.986 606.507 978.337C603.653 978.142 600.928 978.175 598.333 978.434C594.311 963.773 586.559 950.409 575.076 938.343C557.495 919.919 536.217 910.09 511.241 908.858C497.942 908.209 485.681 910.123 474.458 914.599C471.279 895.915 462.651 879.211 448.573 864.484C430.473 845.476 408.611 835.356 382.986 834.124C357.361 832.891 335.467 840.87 317.302 858.062C305.949 869.026 298.132 881.611 293.85 895.818C277.956 899.516 263.652 907.366 250.937 919.367C238.74 931.044 230.372 944.441 225.831 959.556C220.576 961.567 215.743 964.649 211.331 968.801Z" fill="white"/>
<path d="M-76.9091 294.206C-87.9974 295.423 -97.4833 300.391 -105.367 309.108C-113.122 317.824 -117 327.727 -117 338.815C-117 349.903 -113.122 358.909 -105.367 365.831C-97.4833 372.753 -87.9974 375.605 -76.9091 374.387C-70.7561 373.618 -65.1159 371.76 -59.9883 368.811C-57.3605 372.208 -54.348 375.413 -50.951 378.425C-36.0171 391.693 -17.9746 397.141 3.17641 394.769C14.7774 393.423 25.4491 389.93 35.1914 384.29C52.2404 392.366 71.3725 395.186 92.5876 392.75C107.906 391.02 122.071 386.854 135.082 380.252C153.285 395.891 175.109 402.268 200.554 399.384C225.743 396.564 247.343 385.444 265.353 366.023C266.699 365.959 268.077 365.863 269.487 365.735C283.139 364.132 294.805 357.947 304.483 347.179C314.161 336.412 319 324.17 319 310.453C319 296.865 314.161 285.777 304.483 277.189C300.253 273.471 295.638 270.683 290.638 268.824C286.408 254.531 278.461 242.225 266.795 231.906C248.529 215.69 226.448 209.057 200.554 212.005C198.888 212.197 197.221 212.422 195.555 212.678C190.235 203.064 183.121 194.315 174.211 186.431C151.714 166.434 124.507 158.23 92.5876 161.819C60.797 165.473 33.5891 179.862 10.9638 204.987C-0.316719 217.549 -8.77713 231.009 -14.4174 245.366C-28.1335 249.917 -40.3114 258.153 -50.951 270.074C-57.8091 277.701 -63.0648 285.745 -66.7182 294.206C-69.987 293.821 -73.384 293.821 -76.9091 294.206Z" fill="white"/>
<path d="M408.652 436.279C396.029 436.279 385.277 440.72 376.396 449.601C367.465 458.532 363 469.309 363 481.932C363 494.505 367.465 505.232 376.396 514.113C385.277 523.044 396.029 527.509 408.652 527.509C414.39 527.509 419.753 526.586 424.743 524.74C427.237 527.933 429.982 531.027 432.975 534.02C450.587 551.633 471.842 560.439 496.739 560.439C514.301 560.439 530.042 556.073 543.963 547.342C557.184 560.314 573.1 566.8 591.71 566.8C610.62 566.8 626.76 560.114 640.132 546.743C653.503 533.372 660.189 517.231 660.189 498.322C660.189 479.462 653.503 463.347 640.132 449.975C626.76 436.604 610.62 429.918 591.71 429.918C587.12 429.918 582.68 430.317 578.389 431.116C574.048 422.185 568.111 413.952 560.577 406.418C542.965 388.806 521.685 380 496.739 380C471.842 380 450.587 388.806 432.975 406.418C423.895 415.449 417.184 425.453 412.843 436.429C411.446 436.329 410.049 436.279 408.652 436.279Z" fill="white"/>
<path d="M947.091 294.206C936.003 295.423 926.517 300.391 918.633 309.108C910.878 317.824 907 327.727 907 338.815C907 349.903 910.878 358.909 918.633 365.831C926.517 372.753 936.003 375.605 947.091 374.387C953.244 373.618 958.884 371.76 964.012 368.811C966.64 372.208 969.652 375.413 973.049 378.425C987.983 391.693 1006.03 397.141 1027.18 394.769C1038.78 393.423 1049.45 389.93 1059.19 384.29C1076.24 392.366 1095.37 395.186 1116.59 392.75C1131.91 391.02 1146.07 386.854 1159.08 380.252C1177.28 395.891 1199.11 402.268 1224.55 399.384C1249.74 396.564 1271.34 385.444 1289.35 366.023C1290.7 365.959 1292.08 365.863 1293.49 365.735C1307.14 364.132 1318.8 357.947 1328.48 347.179C1338.16 336.412 1343 324.17 1343 310.453C1343 296.865 1338.16 285.777 1328.48 277.189C1324.25 273.471 1319.64 270.683 1314.64 268.824C1310.41 254.531 1302.46 242.225 1290.8 231.906C1272.53 215.69 1250.45 209.057 1224.55 212.005C1222.89 212.197 1221.22 212.422 1219.55 212.678C1214.23 203.064 1207.12 194.315 1198.21 186.431C1175.71 166.434 1148.51 158.23 1116.59 161.819C1084.8 165.473 1057.59 179.862 1034.96 204.987C1023.68 217.549 1015.22 231.009 1009.58 245.366C995.866 249.917 983.689 258.153 973.049 270.074C966.191 277.701 960.935 285.745 957.282 294.206C954.013 293.821 950.616 293.821 947.091 294.206Z" fill="white"/>
<path d="M211.331 -55.1994C202.444 -46.7659 198 -36.2888 198 -23.7683C198 -11.2477 202.444 -0.31665 211.331 9.02512C219.311 17.4586 228.815 22.3241 239.843 23.6216C243.152 28.2925 246.85 32.8336 250.937 37.245C270.593 57.7449 294.24 68.6762 321.876 70.0385C344.322 71.0765 364.108 65.6271 381.235 53.6904C394.08 62.1888 408.546 66.7949 424.635 67.5085C442.605 68.4167 458.564 64.3296 472.511 55.2473C484.253 61.4103 497.163 64.8487 511.241 65.5623C534.206 66.6651 554.057 60.1453 570.794 46.0029C580.785 55.6041 592.689 60.7292 606.507 61.3779C621.233 62.1564 633.851 57.5504 644.361 47.5599C654.805 37.5695 660.028 25.1786 660.028 10.3875C660.028 -4.33876 654.805 -17.2161 644.361 -28.2445C633.851 -39.2081 621.233 -45.0143 606.507 -45.663C603.653 -45.8577 600.928 -45.8252 598.333 -45.5657C594.311 -60.2271 586.559 -73.591 575.076 -85.6574C557.495 -104.081 536.217 -113.91 511.241 -115.142C497.942 -115.791 485.681 -113.877 474.458 -109.401C471.279 -128.085 462.651 -144.789 448.573 -159.516C430.473 -178.524 408.611 -188.644 382.986 -189.876C357.361 -191.109 335.467 -183.13 317.302 -165.938C305.949 -154.974 298.132 -142.389 293.85 -128.182C277.956 -124.484 263.652 -116.634 250.937 -104.633C238.74 -92.9556 230.372 -79.5594 225.831 -64.4439C220.576 -62.4328 215.743 -59.3513 211.331 -55.1994Z" fill="white"/>
<path d="M-317 678.925C-317 687.816 -313.883 695.73 -307.649 702.669C-301.794 709.066 -294.828 712.86 -286.751 714.053C-282.74 729.503 -274.825 743.733 -263.007 756.743C-245.064 776.367 -223.407 787.398 -198.037 789.838C-172.776 792.277 -151.173 785.42 -133.23 769.265C-131.875 767.964 -130.547 766.69 -129.246 765.444C-126.969 765.769 -124.665 766.067 -122.334 766.338C-99.6743 768.506 -79.7794 763.872 -62.6492 752.433C-60.8603 754.764 -58.9359 757.095 -56.8759 759.426C-42.5646 775.039 -25.326 783.848 -5.16006 785.853C12.0786 787.48 27.1487 783.739 40.0506 774.632C48.0736 781.571 57.3434 785.555 67.8601 786.585C80.7077 787.778 91.6309 784.308 100.63 776.177C109.683 767.991 114.209 757.502 114.209 744.708C114.209 731.915 109.683 720.558 100.63 710.638C91.6309 700.772 80.7077 695.188 67.8601 693.887C66.3964 693.779 64.9599 693.697 63.5504 693.643C59.9726 683.723 54.3077 674.507 46.5558 665.996C32.2986 650.33 15.0601 641.548 -5.16006 639.65C-13.6167 638.837 -21.5313 639.298 -28.9038 641.033C-33.6743 627.589 -41.3991 615.039 -52.0784 603.384C-71.4311 582.134 -94.8497 570.181 -122.334 567.525C-149.764 564.869 -173.182 572.295 -192.589 589.805C-198.119 594.792 -202.835 600.159 -206.738 605.905C-228.422 605.688 -247.178 612.708 -263.007 626.965C-270.651 633.85 -276.668 641.629 -281.059 650.303C-282.306 650.086 -283.553 649.923 -284.8 649.815C-293.744 648.947 -301.361 651.36 -307.649 657.052C-313.883 662.69 -317 669.981 -317 678.925Z" fill="white"/>
</g>
<defs>
<clipPath id="clip0_102_235">
<rect width="1024" height="1024" fill="white"/>
</clipPath>
</defs>
</svg>
