<svg width="857" height="639" viewBox="0 0 857 639" fill="none" xmlns="http://www.w3.org/2000/svg">
<rect width="857" height="639" fill="#84CDEE"/>
<ellipse cx="107.5" cy="190.449" rx="58.5" ry="60.1758" fill="white"/>
<ellipse cx="141.5" cy="144.16" rx="58.5" ry="60.1758" fill="white"/>
<ellipse cx="185.5" cy="214.108" rx="58.5" ry="60.1758" fill="white"/>
<ellipse cx="235.5" cy="117.415" rx="58.5" ry="60.1758" fill="white"/>
<ellipse cx="269.5" cy="178.105" rx="58.5" ry="60.1758" fill="white"/>
<ellipse cx="600.5" cy="524.759" rx="58.5" ry="60.1758" fill="white"/>
<ellipse cx="643.5" cy="441.439" rx="58.5" ry="60.1758" fill="white"/>
<ellipse cx="670.5" cy="524.759" rx="58.5" ry="60.1758" fill="white"/>
<ellipse cx="702.5" cy="452.754" rx="58.5" ry="60.1758" fill="white"/>
<ellipse cx="749.5" cy="512.415" rx="58.5" ry="60.1758" fill="white"/>
<ellipse cx="641.5" cy="64.9544" rx="47.5" ry="39.6029" fill="white"/>
<ellipse cx="710.5" cy="58.7826" rx="39.5" ry="33.431" fill="white"/>
<ellipse cx="641.5" cy="115.358" rx="33.5" ry="23.1445" fill="white"/>
<ellipse cx="676.5" cy="118.444" rx="34.5" ry="40.6315" fill="white"/>
<ellipse cx="710.5" cy="98.8997" rx="39.5" ry="39.6029" fill="white"/>
<ellipse cx="166.5" cy="532.988" rx="47.5" ry="39.6029" transform="rotate(-180 166.5 532.988)" fill="white"/>
<ellipse cx="97.5" cy="539.16" rx="39.5" ry="33.431" transform="rotate(-180 97.5 539.16)" fill="white"/>
<ellipse cx="166.5" cy="482.585" rx="33.5" ry="23.1445" transform="rotate(-180 166.5 482.585)" fill="white"/>
<ellipse cx="131.5" cy="479.499" rx="34.5" ry="40.6315" transform="rotate(-180 131.5 479.499)" fill="white"/>
<ellipse cx="97.5" cy="499.043" rx="39.5" ry="39.6029" transform="rotate(-180 97.5 499.043)" fill="white"/>
</svg>
